<svg width="40" height="40" viewBox="0 0 32 32" fill="none" xmlns="http://www.w3.org/2000/svg">
<path d="M21.0377 13.2257C19.5071 13.2257 18.6273 12.3279 17.8495 11.5355C17.246 10.9196 16.724 10.3881 16 10.3881C15.2863 10.3881 14.7689 10.916 14.1698 11.527C13.3904 12.3231 12.5073 13.2257 10.9614 13.2257C9.43115 13.2257 8.55098 12.3279 7.77323 11.5355C7.16983 10.9198 6.64774 10.3879 5.92383 10.3879V9.43994C7.04566 9.43994 7.75944 10.1677 8.45008 10.8716C9.15902 11.5947 9.82923 12.2779 10.9612 12.2779C12.1082 12.2779 12.7812 11.591 13.493 10.8642C14.1783 10.1639 14.8874 9.43994 16 9.43994C17.1216 9.43994 17.8359 10.1677 18.526 10.8716C19.2355 11.5947 19.9055 12.2779 21.0377 12.2779C22.1846 12.2779 22.8575 11.591 23.5694 10.8642C24.2554 10.1637 24.9634 9.43994 26.0762 9.43994V10.3879C25.3626 10.3879 24.8448 10.9158 24.2469 11.5269C23.4667 12.3233 22.5834 13.2257 21.0377 13.2257H21.0377Z" fill="black"/>
<path d="M19.4147 17.8054L16.4739 20.7456V13.2256H15.5259V20.746L12.5989 17.8196L11.9287 18.4895L15.9999 22.5596L20.085 18.4757L19.4147 17.8054Z" fill="black"/>
</svg>
